<svg width="19" height="19" viewBox="0 0 19 19" fill="none" xmlns="http://www.w3.org/2000/svg">
<path fill-rule="evenodd" clip-rule="evenodd" d="M9.32913 18.5657L8.57579 18.4952L9.21279 11.6821C9.11194 11.6542 9.0143 11.6193 8.92039 11.5779L5.10745 16.9043L4.49221 16.4639L8.29293 11.1545C8.21149 11.0754 8.13643 10.99 8.06849 10.8991L2.02853 13.8302L1.6982 13.1495L7.72915 10.2228C7.67511 10.0399 7.645 9.84749 7.64213 9.64964L0.850202 8.92665L0.930292 8.17427L7.76397 8.90171C7.805 8.7853 7.85567 8.67381 7.91495 8.56809L2.23693 4.61591L2.66918 3.9949L8.3977 7.98223C8.48524 7.90786 8.57872 7.84048 8.6772 7.78088L5.53257 1.41549L6.21093 1.08036L9.38682 7.50902C9.45871 7.49544 9.53176 7.48549 9.60573 7.47934L10.2662 0.415022L11.0196 0.485457L10.3591 7.54981C10.4999 7.58871 10.6345 7.64143 10.7614 7.70631L15.0623 1.6982L15.6775 2.13862L11.3637 8.16468C11.4251 8.23144 11.4822 8.30203 11.5347 8.376L18.0352 5.22142L18.3655 5.90213L11.857 9.06059C11.8818 9.15274 11.9004 9.24715 11.9127 9.34333L18.9873 10.0964L18.9072 10.8488L11.8745 10.1002C11.8547 10.1859 11.8299 10.2695 11.8003 10.3506L17.5733 14.3689L17.141 14.9899L11.4178 11.0063C11.3553 11.0795 11.288 11.1484 11.2164 11.2125L14.2539 17.3611L13.5756 17.6962L10.5697 11.6117C10.3794 11.6866 10.1765 11.7349 9.96614 11.7525L9.32913 18.5657Z" fill="#83A17D"/>
</svg>
