<svg width="21" height="21" viewBox="0 0 21 21" fill="none" xmlns="http://www.w3.org/2000/svg">
<path fill-rule="evenodd" clip-rule="evenodd" d="M11.8271 0.709915L12.6475 0.845606L11.4204 8.26496C11.5288 8.30329 11.6332 8.34914 11.7329 8.4018L16.3262 2.85884L16.9664 3.38941L12.388 8.91445C12.4713 9.00759 12.5471 9.10717 12.6146 9.21216L19.4629 6.46798L19.7722 7.23986L12.9341 9.97993C12.9792 10.1847 12.9973 10.398 12.9851 10.6151L20.3753 11.935L20.2291 12.7536L12.7934 11.4256C12.7393 11.5503 12.6749 11.6689 12.6015 11.7804L18.5186 16.5532L17.9965 17.2004L12.0266 12.385C11.9247 12.4597 11.8169 12.5263 11.7042 12.584L14.6572 19.8055L13.8875 20.1202L10.9051 12.8265C10.8254 12.8358 10.7447 12.841 10.6634 12.842L9.39095 20.5351L8.57055 20.3994L9.84302 12.706C9.69167 12.6524 9.54828 12.5841 9.41423 12.5031L4.23267 18.7561L3.59239 18.2255L8.78956 11.9537C8.72758 11.8759 8.67054 11.7942 8.61881 11.7091L1.24706 14.663L0.937765 13.8912L8.31864 10.9336C8.29871 10.8307 8.28557 10.7258 8.27963 10.6194L0.583002 9.24483L0.729203 8.42624L8.38027 9.79272C8.4085 9.70059 8.44207 9.61117 8.48059 9.52478L2.46288 4.67085L2.98495 4.02362L8.95053 8.8355C9.02467 8.76007 9.10371 8.68979 9.18703 8.62509L6.33398 1.6479L7.10366 1.33317L9.92683 8.23728C10.1414 8.16976 10.3677 8.13243 10.6 8.12951L11.8271 0.709915Z" fill="#83A17D"/>
</svg>
